# xmcd
# 
# Track frame offsets:
#     150
#     29462
#     48857
#     71040
#     94217
#     113637
#     133385
#     151712
#     179785
#     196355
#     220602
# 
# Disc length: 3132
# 
# Revision: 1
# Processed by: cddbd v1.5.2PL0 Copyright (c) Steve Scherf et al.
# Submitted via: BonkEnc v1.0.8
# 
DISCID=9d0c3a0b
DTITLE=Alphonse Mouzon - Infinity - Now
DYEAR=1991
DGENRE=Fusion
TTITLE0=Cargo For Montreal
TTITLE1=Just Because Of You
TTITLE2=Just Once
TTITLE3=I Dont't Know
TTITLE4=Somehow
TTITLE5=Ütz
TTITLE6=Fog In Frankfurt
TTITLE7=Makin' Love With You
TTITLE8=Music Till The NEws
TTITLE9=Katschur
TTITLE10=What's This
EXTD=YEAR: 1991
EXTT0=
EXTT1=
EXTT2=
EXTT3=
EXTT4=
EXTT5=
EXTT6=
EXTT7=
EXTT8=
EXTT9=
EXTT10=
PLAYORDER=
